<?xml version="1.0" encoding="utf-8"?>
<!-- Generator: Adobe Illustrator 24.0.2, SVG Export Plug-In . SVG Version: 6.00 Build 0)  -->
<svg version="1.1" id="레이어_1" xmlns="http://www.w3.org/2000/svg" xmlns:xlink="http://www.w3.org/1999/xlink" x="0px"
	 y="0px" viewBox="0 0 3163.4 276.4" style="enable-background:new 0 0 3163.4 276.4;" xml:space="preserve">
<style type="text/css">
	.st0{fill:#FFC200;}
	.st1{fill:#FFB600;}
	.st2{fill:#FFB000;}
	.st3{fill:#FFCE00;}
	.st4{fill:#217DE0;}
</style>
<g>
	<g>
		<rect x="42.5" y="186.7" class="st0" width="250.3" height="18.8"/>
		<rect x="69.1" y="222.1" class="st1" width="197.2" height="18.8"/>
		<rect x="110.5" y="257.5" class="st2" width="114.3" height="18.8"/>
		<path class="st3" d="M71.3,127.2l16.4,20.5l45.5-9L94.5,83.7l17-0.5l70,45.8c9.7-1.9,27.1-5.1,47.8-7.3c19-2,20.9,5,26.6,5.8
			c19.8,3,19.2,21.9,19.2,21.9l-119.9,18.2h180.2C335.4,75.1,260.3,0,167.7,0S0,75.1,0,167.7h75l-15.5-31.1L71.3,127.2z"/>
	</g>
	<polygon class="st4" points="544.9,145.2 472.9,44.5 431.7,44.5 431.7,234.1 476.4,234.1 476.4,128.5 534.6,213 549.6,213 
		607.1,129.7 607.1,234.1 656.1,234.1 656.1,44.5 615.2,44.5 	"/>
	<path class="st4" d="M797.2,44.5l-98.4,189.6h53.6l18.7-38.3h93l19.3,38.3h58.3L841.9,44.5H797.2z M794.2,149.8l24-47.9l23.3,47.9
		H794.2z"/>
	<polygon class="st4" points="959.5,88 1033.3,88 1033.3,231.9 1085.1,231.9 1085.1,88 1159.1,88 1159.1,42.3 959.5,42.3 	"/>
	<polygon class="st4" points="1205.1,88 1278.9,88 1278.9,231.9 1330.7,231.9 1330.7,88 1404.7,88 1404.7,42.3 1205.1,42.3 	"/>
	<rect x="1454.2" y="42.3" class="st4" width="51.8" height="189.6"/>
	<path class="st4" d="M1712,141.5c0,2.4,0.1,5.7,0.3,9.8c0,0.2,0,0.5,0,0.8c-1.6-1.5-3.3-3.1-5-4.6L1592.1,42.3h-35.5v189.6h48V130
		c0-2.4-0.1-5.2-0.2-8.3l120.1,110.1h35.5V42.3h-48V141.5z"/>
	<path class="st4" d="M1898.5,42.3L1800,231.9h53.6l18.7-38.3h93l19.3,38.3h58.3l-99.7-189.6H1898.5z M1895.5,147.5l24-47.9
		l23.3,47.9H1895.5z"/>
	<polygon class="st4" points="2159,90.2 2232.7,90.2 2232.7,234.1 2284.5,234.1 2284.5,90.2 2358.6,90.2 2358.6,44.5 2159,44.5 	"/>
	<path class="st4" d="M2582.7,44.5h-118.3c-17.9,0-29.9,3.6-36.9,11.1c-6.8,7.3-10.1,19.6-10.1,37.6v92.3c0,18.1,3.3,30.4,10.2,37.7
		c7,7.4,19,11,36.9,11h118.3c17.8,0,29.9-3.6,36.9-11c6.8-7.3,10.2-19.6,10.2-37.7V93.1c0-18-3.3-30.3-10.1-37.6
		C2612.6,48.1,2600.5,44.5,2582.7,44.5z M2578.1,186.7h-109V90.2h109V186.7z"/>
	<path class="st4" d="M2834.4,186.7h-92.2V44.5h-51.8v141c0,18.1,3.4,30.4,10.3,37.7c7,7.4,19,10.9,36.8,10.9H2839
		c17.8,0,29.9-3.6,36.9-11c6.8-7.3,10.2-19.6,10.2-37.7v-141h-51.6V186.7z"/>
	<path class="st4" d="M3108.8,166.8c8-1.5,14.2-4.5,19-8.9c7.2-6.8,10.8-17.3,10.8-31.1V85.7c0-13.9-3.7-24.4-10.9-31.2
		c-7.2-6.7-17.9-10-32.7-10h-144.7v189.6h51.2V168h47.2l48.4,66.1h66.2L3108.8,166.8z M3088.2,116.8c0,3.7-0.8,5.1-1.1,5.4
		c0,0-1.7,1.3-8.6,1.3h-76.9V89.2h76.9c6.9,0,8.6,1.3,8.6,1.3c0.4,0.3,1.1,1.8,1.1,5.2V116.8z"/>
</g>
</svg>
